<svg width="62" height="6" viewBox="0 0 62 6" fill="none" xmlns="http://www.w3.org/2000/svg">
<path d="M4.91363 5.20605C4.95149 5.19971 5.10375 5.21514 5.16966 5.21246C5.09495 5.27953 4.77709 5.22908 4.91363 5.20605ZM11.6749 0.335568C11.6202 0.35215 11.5655 0.368732 11.5108 0.385314C11.6662 0.396088 11.8751 0.383918 12.0194 0.399658C12.043 0.402301 11.9818 0.450311 12.0376 0.452455C12.0934 0.454585 12.0827 0.388975 12.1638 0.381957C12.2549 0.374284 12.672 0.419993 12.8164 0.418885C13.3566 0.414455 13.9014 0.376986 14.4426 0.404236C13.8839 0.452776 14.4469 0.502179 14.6035 0.481143C14.6381 0.476272 14.6326 0.354297 15.1932 0.385009C15.5495 0.404499 15.2204 0.578879 15.815 0.491519C15.3578 0.369527 15.8074 0.378077 16.1658 0.374022C16.2275 0.373304 16.7265 0.391632 16.9469 0.38623C17.0223 0.384351 17.1372 0.32046 17.2372 0.318783C17.3061 0.317677 17.3581 0.352606 17.4604 0.350828C17.9369 0.342955 18.4055 0.340239 18.8829 0.352049C18.6039 0.516233 19.1018 0.422022 19.1242 0.429871C19.2379 0.474449 18.7236 0.487138 18.927 0.515019C19.2112 0.509932 19.4955 0.504846 19.7798 0.499759C19.5465 0.479601 20.0886 0.3615 20.1884 0.415222C20.1445 0.270143 21.484 0.541494 21.688 0.493045C21.7304 0.482811 21.4524 0.411108 22.0973 0.44391C22.1672 0.447555 22.1407 0.491327 22.1774 0.487247C22.1993 0.484793 22.3321 0.345669 22.4735 0.422547C22.5252 0.450606 22.1947 0.54198 22.9205 0.505253C22.6315 0.363652 23.9268 0.428567 24.1651 0.464052C24.1175 0.445029 24.0699 0.426006 24.0223 0.406982C24.2579 0.458301 24.3004 0.410157 24.3535 0.412781C24.5674 0.423319 24.8614 0.471837 25.0607 0.467409C25.2938 0.462315 25.2946 0.374253 25.5664 0.408508C25.5019 0.389078 25.4374 0.369648 25.3729 0.350217C25.5607 0.354897 25.7484 0.359576 25.9361 0.364256C25.5014 0.480826 26.0299 0.369817 26.0647 0.367308C26.1202 0.363065 26.0404 0.410789 26.1333 0.404846C26.1429 0.403868 26.129 0.358927 26.2722 0.35388C26.5713 0.343487 26.524 0.399992 26.6496 0.399353C26.6611 0.399061 26.6208 0.358575 26.8377 0.348997C27.527 0.318505 26.8343 0.380023 26.8078 0.385619C26.7731 0.393 27.0094 0.562195 26.4239 0.502201C26.6205 0.5213 26.6403 0.596171 26.6624 0.59803C26.682 0.599558 27.0226 0.589011 27.0414 0.586432C27.2089 0.561008 27.0615 0.509843 27.0942 0.500675C27.1209 0.493283 27.5313 0.55996 27.6275 0.406067C27.8238 0.548015 27.5145 0.535011 27.1852 0.556829C27.1371 0.585958 27.4988 0.614282 27.5178 0.614204C27.9842 0.613945 27.726 0.497184 27.8279 0.422547C27.8815 0.383495 28.0715 0.463153 27.8961 0.358457C28.3194 0.347406 28.0627 0.408075 28.09 0.417053C28.1313 0.430245 28.2794 0.400239 28.298 0.404236C28.3252 0.410153 28.2306 0.446401 28.3379 0.459169C28.3557 0.461026 28.5286 0.398649 28.3057 0.368834C28.6036 0.377701 28.579 0.324512 28.68 0.431702C28.8852 0.228912 28.8289 0.55157 28.9097 0.562933C29.1245 0.592885 29.0622 0.433668 29.0735 0.425904C29.1517 0.376149 29.7464 0.430844 29.8937 0.407898C29.8356 0.522575 29.4222 0.40915 29.3298 0.431397C29.0217 0.505413 29.7641 0.488732 29.5403 0.632821C29.6341 0.593248 29.728 0.553676 29.8218 0.514103C29.9938 0.606747 29.7498 0.647144 30.2127 0.613289C30.2884 0.533325 29.8854 0.625919 29.9662 0.562933C30.0139 0.525967 30.2823 0.518027 30.2876 0.498538C30.2929 0.475079 30.0503 0.502882 30.0885 0.466799C30.172 0.388933 31.0569 0.463061 30.3833 0.505558C30.5712 0.504227 30.668 0.659105 30.831 0.610847C30.9363 0.579524 30.3435 0.365621 31.2328 0.404846C31.2518 0.47798 30.8773 0.426442 30.8676 0.432008C30.8539 0.440109 30.9217 0.605143 30.9334 0.613289C30.9749 0.640108 31.883 0.551736 32.0749 0.634652C31.999 0.539269 32.7611 0.617632 32.8442 0.588569C32.8663 0.580545 32.7837 0.522118 32.8073 0.515934C32.9547 0.479127 33.3533 0.583425 33.5383 0.586127C33.7452 0.589189 33.719 0.538728 33.7306 0.538823C33.8216 0.541638 33.7489 0.575847 33.8046 0.575751C33.8887 0.575587 34.4666 0.582583 34.4956 0.575446C34.5041 0.573221 34.4098 0.515577 34.5358 0.504642C34.5576 0.502748 34.5437 0.571092 34.9169 0.54157C35.3663 0.506063 34.6048 0.45658 34.7916 0.385009C35.0802 0.486915 35.0708 0.38593 35.1491 0.393859C35.1762 0.396747 35.3779 0.482607 35.597 0.477175C35.4397 0.491112 35.2825 0.505049 35.1253 0.518986C35.2799 0.534041 35.58 0.515407 35.7074 0.532414C35.7695 0.540693 35.7183 0.611227 35.8532 0.609321C35.8819 0.608533 35.9955 0.436692 35.642 0.513798C35.6137 0.452438 35.782 0.492395 35.86 0.475039C35.8718 0.472335 35.9184 0.369827 36.018 0.433534C36.0419 0.449207 35.7814 0.748231 36.4533 0.531804C36.4749 0.524829 36.3997 0.48738 36.4208 0.479617C36.4353 0.47436 36.6068 0.489508 36.6258 0.484195C36.6451 0.478494 36.5623 0.437611 36.5854 0.429566C36.7037 0.388113 36.8589 0.550262 36.615 0.537908C36.6965 0.557948 36.7781 0.577989 36.8596 0.59803C36.7724 0.475823 36.9877 0.563645 37.1005 0.559881C37.8234 0.535828 37.3393 0.456346 37.4636 0.415222C37.6635 0.349194 37.5108 0.558326 37.8076 0.495487C37.8351 0.489611 37.4763 0.400838 38.1769 0.450929C38.0735 0.454388 37.9701 0.457847 37.8667 0.461306C37.9263 0.579507 38.24 0.453197 38.2641 0.45154C38.5392 0.43531 38.3533 0.477921 38.7617 0.417053C38.7982 0.411589 38.8777 0.44076 38.9557 0.426209C39.279 0.366261 38.529 0.389831 38.5085 0.341977C38.4988 0.318529 39.3054 0.324434 39.3331 0.335568C39.4506 0.384923 38.9674 0.357307 39.0595 0.418579C39.0931 0.440336 40.2428 0.395651 40.4734 0.419495C40.7395 0.447241 40.8594 0.6075 40.8611 0.42743C40.9362 0.604184 41.0025 0.483588 41.0366 0.484805C41.4481 0.501167 41.4489 0.502951 41.8018 0.486026C41.8798 0.482347 41.9456 0.535977 41.9731 0.526921C41.9892 0.521451 41.9592 0.464059 42.0378 0.446351C42.147 0.422127 42.8031 0.481157 42.8519 0.512882C42.9006 0.544608 42.5748 0.526641 42.6332 0.578803C42.869 0.584076 43.0952 0.571169 43.3326 0.576666C43.4312 0.579106 43.3806 0.615615 43.4232 0.616341C43.4413 0.616789 43.7819 0.58464 43.7674 0.571173C43.7336 0.539859 42.6821 0.560908 42.959 0.497013C43.0124 0.484666 43.2011 0.568797 43.1711 0.466494C44.1106 0.489688 45.0501 0.512882 45.9895 0.536077C45.4497 0.612595 44.8423 0.544162 44.2769 0.551336C44.1994 0.552222 43.9375 0.542354 43.9693 0.594062C44.4501 0.607449 45.0478 0.580507 45.5094 0.614204C45.5242 0.615319 45.47 0.661776 45.5253 0.669138C45.6288 0.682879 45.9656 0.607952 46.0222 0.627328C46.0319 0.631841 45.8402 0.693086 45.8985 0.732007C46.0481 0.831888 46.0861 0.610668 46.2147 0.613289C46.3142 0.61541 46.9827 0.722373 47.1492 0.654794C47.3263 0.582763 46.6566 0.612976 46.706 0.554083C47.1592 0.494898 47.618 0.558099 48.0461 0.550725C48.0537 0.550538 47.9882 0.504386 48.0837 0.497928C48.25 0.48669 48.2936 0.552155 48.3745 0.562628C48.4618 0.573776 48.7704 0.564395 48.8117 0.588264C48.8169 0.591393 48.7544 0.656326 48.7449 0.658151C48.6105 0.684913 48.5627 0.600637 48.5505 0.599555C48.5046 0.59636 48.4594 0.62864 48.4175 0.626717C48.3484 0.623511 48.3104 0.593647 48.2193 0.59101C48.1565 0.58908 48.2171 0.64643 48.1565 0.643808C48.1343 0.642613 47.8944 0.511659 47.872 0.645334C47.8651 0.687481 49.8269 0.741605 50.0229 0.707897C49.8547 0.691824 49.6866 0.675751 49.5184 0.659677C49.8599 0.698803 50.2702 0.591995 50.2993 0.750013C51.5659 0.762932 52.8325 0.775852 54.0991 0.788772C54.3252 0.802234 54.2012 0.903777 54.5733 0.874224C54.4772 0.841874 54.381 0.809524 54.2849 0.777175C54.4756 0.799869 55.3206 0.844205 55.4574 0.823258C55.4751 0.820512 55.4997 0.728611 55.7109 0.720715C55.8982 0.713743 55.9283 0.782601 56.0285 0.795791C56.1126 0.806674 56.2071 0.788633 56.232 0.792434C56.2512 0.795478 56.2587 0.837584 56.3048 0.844926C56.4503 0.867627 56.3324 0.749072 56.4768 0.885211C56.4417 0.890399 56.4065 0.895587 56.3713 0.900775C56.5469 0.92048 56.7868 0.982285 56.5282 1.01278C56.4837 1.01804 56.5219 0.977307 56.4887 0.977377C55.19 0.984947 56.2271 1.06414 56.6822 1.00088C56.7991 1.06124 57.4542 1.02438 57.476 1.03628C57.5063 1.05351 57.3941 1.10175 57.5411 1.1434C57.572 1.15222 58.4479 1.11842 58.1325 1.19864C58.0674 1.21519 57.6475 1.1978 57.5462 1.20016C57.7844 1.3281 58.3428 1.14481 58.4056 1.1495C58.6588 1.16944 57.919 1.26037 58.4896 1.27524C58.9283 1.28665 58.5164 1.20123 58.6852 1.16476C58.78 1.1443 59.2765 1.23841 59.263 1.11654C59.4335 1.10353 59.3337 1.16806 59.3548 1.1727C59.3753 1.17678 59.7104 1.1403 59.8192 1.16598C59.8324 1.16918 59.7909 1.23252 59.8045 1.2377C59.831 1.24658 60.1542 1.23391 60.1672 1.22855C60.1754 1.22482 60.0984 1.16936 60.1301 1.15591C60.167 1.1404 60.4779 1.15345 60.4951 1.1376C60.5193 1.11363 60.1354 1.12942 60.1994 1.06741C60.3763 1.08302 60.6647 1.04165 60.7815 0.991721C60.7528 1.006 60.5813 1.00804 60.5217 1.00301C60.5497 0.912188 60.9181 0.913425 60.7922 0.985312C60.8722 0.946705 60.8176 0.926224 60.8627 0.889789C60.8745 0.880559 60.9883 0.878658 61.0102 0.862932C61.013 0.859799 60.8957 0.82553 60.9192 0.807083C60.9617 0.773747 61.3066 0.781247 61.3348 0.789992C61.4142 0.814776 61.1331 0.844764 61.1096 0.883075C61.1063 0.888958 61.3454 0.964033 61.3491 0.970663C61.363 1.0418 61.0969 0.990536 61.1273 1.05459C61.1931 1.06812 61.259 1.08165 61.3248 1.09518C61.0709 1.16004 60.6013 1.12669 60.4802 1.20047C60.8565 1.17851 61.2504 1.18111 61.2496 1.34726C61.2494 1.41724 61.087 1.45826 61.0933 1.47605C61.1172 1.53972 61.3426 1.47056 61.3509 1.47392C61.3578 1.4778 61.3609 1.48157 61.3609 1.48525C61.3609 1.48525 61.3609 1.48525 61.3609 1.48526C61.3609 1.52253 61.0396 1.54937 61.0235 1.56639C60.9964 1.59662 61.1395 1.72106 61.1392 1.74859C61.1343 1.75412 60.9054 1.78356 60.9826 1.8316C61.0608 1.88011 61.261 1.88118 61.2681 1.88623C61.3063 1.91525 60.956 1.94172 60.9455 1.95886C60.94 1.96753 61.1282 2.02077 61.1336 2.03607C61.1383 2.05143 60.9953 2.08495 60.939 2.13343C60.897 2.16945 61.0193 2.19706 60.9978 2.2027C60.9824 2.20645 60.6514 2.20583 60.6351 2.21217C60.6109 2.22153 60.6884 2.26458 60.6771 2.27534C60.6611 2.29082 60.5542 2.27528 60.5681 2.29121C60.5786 2.30308 60.993 2.45147 60.9903 2.49111C60.9856 2.55871 60.5467 2.40316 60.9551 2.66995C60.9579 2.6717 61.0574 2.65274 61.0601 2.65438C61.1215 2.70347 60.8028 2.77897 61.1924 2.76578C60.4676 2.85103 61.1022 2.8674 60.995 2.98124C60.9536 3.02499 60.6726 3.04303 60.6713 3.0496C60.6986 3.10511 60.7881 3.06206 60.8186 3.08927C60.8353 3.10448 60.5839 3.16317 60.6405 3.20128C60.6697 3.22092 60.9366 3.21393 60.9476 3.21776C61.0532 3.25389 60.9237 3.29281 60.9469 3.31847C60.9623 3.33568 61.1234 3.33704 61.1276 3.34014C61.1344 3.34658 60.9157 3.41611 60.8701 3.44054C60.8355 3.45935 60.9655 3.48881 60.9413 3.497C60.7958 3.54602 60.486 3.421 60.7845 3.59619C60.8027 3.60693 60.9156 3.60259 60.9189 3.60474C60.9887 3.6544 60.7808 3.65869 60.7436 3.69934C60.6798 3.7694 60.9786 3.73034 60.7301 3.77961C60.9165 3.82542 61.0203 3.82351 61.2384 3.81074C60.6346 3.84636 60.4214 4.02771 61.0919 4.02315C60.8786 4.02032 60.9023 4.12267 60.8386 4.12447C60.7991 4.12547 60.4898 4.0237 60.6316 4.25204C60.6494 4.28056 60.8372 4.24432 60.7784 4.3027C60.3276 4.2878 60.7689 4.33984 60.7693 4.34756C60.7635 4.48206 59.6619 4.3719 59.4726 4.38724C59.253 4.40502 59.0578 4.51101 59.01 4.51114C58.853 4.51119 58.9833 4.45738 58.9482 4.43759C58.9126 4.41799 58.4659 4.52108 58.4436 4.51541C58.3571 4.49267 58.4449 4.42891 58.4359 4.42569C58.3288 4.38662 57.7289 4.43654 57.5609 4.42172C57.5661 4.46309 57.9033 4.46637 57.6928 4.53281C57.4476 4.61027 57.4336 4.42792 57.4272 4.41989C56.304 4.42162 55.1808 4.42335 54.0575 4.42508C54.0715 4.5221 54.8059 4.44893 54.8226 4.4617C54.9207 4.53733 53.6802 4.53594 53.528 4.50168C53.6436 4.52264 53.7592 4.54359 53.8748 4.56455C53.6774 4.67609 53.2405 4.53118 52.955 4.58042C52.8628 4.59638 53.0399 4.63943 53.0362 4.64237C52.9326 4.68569 52.7662 4.65232 52.8906 4.59415C52.6375 4.64988 52.6745 4.58839 52.4803 4.58378C52.4703 4.58358 52.5537 4.62859 52.4 4.64726C52.328 4.65596 51.944 4.65611 51.8926 4.69548C51.8715 4.71205 52.0663 4.8866 52.0903 4.73637C52.5079 4.8096 52.2238 4.66791 52.386 4.67137C52.4109 4.67215 52.3536 4.756 52.7622 4.71653C52.6844 4.86775 52.2139 4.75467 52.1332 4.77299C51.9669 4.81064 52.6523 4.88873 52.7781 4.77086C52.7193 4.88886 52.8267 4.78676 52.9795 4.79161C53.1468 4.79687 53.0739 4.83201 53.1644 4.8322C53.4119 4.83308 53.3092 4.74978 53.5133 4.82487C53.3144 4.59241 53.8625 4.7942 54.0223 4.85509C53.7624 4.86689 53.5025 4.87869 53.2425 4.89049C53.2574 4.9027 53.2723 4.9149 53.2871 4.92711C53.2187 4.92538 53.1502 4.92365 53.0817 4.92192C53.0927 4.91023 53.1037 4.89853 53.1146 4.88683C52.7616 4.96289 52.6755 4.8774 52.6467 4.87645C52.2761 4.86653 51.8481 4.86727 51.4735 4.86699C51.4173 4.86695 51.4558 4.94304 51.0461 4.88347C50.9154 4.8645 51.0388 4.80531 50.8907 4.81419C50.7054 4.97503 50.7089 4.84675 50.6538 4.84654C50.4957 4.84656 50.3991 4.88641 50.3845 4.88683C50.1892 4.89304 49.9031 4.88639 49.6885 4.89232C49.6845 4.89293 49.7961 4.94234 49.6568 4.92772C49.6078 4.9225 49.1688 4.71156 48.7851 4.78032C48.8849 4.79456 48.9847 4.8088 49.0845 4.82304C48.9671 4.80314 48.1447 4.8563 48.3458 4.91277C48.4691 4.94728 48.77 4.81131 48.803 4.94207C48.5294 4.90293 47.0179 4.96146 46.9002 4.93108C46.8839 4.92674 46.9841 4.88432 46.9616 4.87889C46.9442 4.87476 46.598 4.88481 46.552 4.86852C46.5246 4.85884 46.6776 4.83283 46.6652 4.81755C46.6543 4.80665 46.2219 4.78849 46.1972 4.84166C46.3034 4.82031 46.6018 4.83895 46.4453 4.88378C46.4252 4.88934 46.3209 4.85504 46.2964 4.86211C46.0695 4.92726 46.7477 4.91162 46.8526 4.91216C46.4266 4.9799 45.7678 4.90004 45.2742 4.9442C45.0748 4.89994 45.5699 4.8765 45.3442 4.83983C44.8761 4.76382 45.2196 4.90103 45.2051 4.90666C45.0888 4.95132 44.6928 4.71201 44.6926 4.89415C44.5229 4.86673 44.5778 4.84377 44.3383 4.8676C44.3698 4.88022 44.4013 4.89283 44.4328 4.90544C44.1669 5.01095 43.6041 4.74477 43.6463 4.72447C43.7597 4.67013 44.0528 4.75489 44.0778 4.75285C44.1149 4.74983 44.2173 4.56501 44.6228 4.73027C44.7888 4.60631 43.9801 4.6466 44.3481 4.56211C44.0996 4.57597 43.0772 4.48969 42.93 4.5441C42.9125 4.55121 42.9943 4.67472 42.7417 4.61185C42.6218 4.58192 42.9109 4.58048 42.8561 4.55234C42.6872 4.46599 40.391 4.52123 39.9548 4.52579C39.9265 4.52593 39.9369 4.4876 39.9091 4.48795C39.8236 4.48902 39.5122 4.54618 39.3592 4.52854C39.6761 4.59949 39.0607 4.60501 38.9041 4.5972C38.6665 4.58532 38.6812 4.51786 38.5785 4.50351C38.1829 4.44822 37.5698 4.60838 37.2624 4.45865C37.2793 4.60725 36.7308 4.38579 36.4813 4.38449C36.2858 4.38342 36.0023 4.48176 36.2661 4.54166C35.9287 4.53482 35.5736 4.56254 35.2572 4.57157C35.2048 4.57308 35.2769 4.52914 35.1876 4.53312C35.1795 4.53379 35.1683 4.57685 35.0917 4.58133C34.459 4.61887 34.7669 4.52736 34.6485 4.50046C34.5823 4.4854 34.5334 4.47791 34.4975 4.47543C34.8663 4.46702 35.2916 4.45011 35.4054 4.44888C35.3083 4.35379 34.588 4.46715 34.3771 4.44156C34.3697 4.44063 34.3952 4.38822 34.3878 4.38785C34.3876 4.38785 34.3875 4.38785 34.3873 4.38785C34.3083 4.38383 33.8048 4.40317 33.9084 4.46567C33.9362 4.48237 34.168 4.48233 34.4429 4.47666C34.3685 4.48838 34.424 4.54709 34.4109 4.5496C34.2517 4.57862 33.8617 4.52131 33.7233 4.51358C33.6917 4.51189 33.694 4.5495 33.6888 4.5496C33.563 4.54105 33.6146 4.43364 33.4855 4.54441C33.2576 4.41055 33.9126 4.52453 33.8664 4.43759C33.831 4.37066 32.3763 4.40661 32.3807 4.51206C32.3756 4.50078 32.3556 4.48678 32.3146 4.47086C32.2236 4.43547 31.8187 4.44654 31.7489 4.46597C31.7371 4.4698 31.7418 4.57215 31.7272 4.57309C31.6906 4.57545 31.1957 4.4952 31.0109 4.5557C31.1107 4.57004 31.2105 4.58439 31.3103 4.59873C30.7076 4.59962 30.8007 4.63008 31.0016 4.66068C31.0116 4.66096 31.0214 4.66484 31.031 4.66526C31.1866 4.68789 31.3862 4.70968 31.3892 4.71775C31.4006 4.74856 30.378 4.76571 30.5747 4.67075C30.6021 4.65778 31.0753 4.70006 30.841 4.6323C30.8 4.62043 30.4961 4.63977 30.4802 4.6323C30.3734 4.58265 31.0369 4.51669 30.9558 4.44614C30.7948 4.51331 30.5881 4.47793 30.4034 4.49527C30.3193 4.50311 30.2987 4.55443 30.2883 4.55539C30.1334 4.56879 30.2203 4.51499 30.1686 4.51633C30.1408 4.51725 29.8355 4.63177 29.8932 4.47391C28.8871 4.59003 29.6149 4.58992 30.2321 4.58103C30.0371 4.63852 29.6547 4.61071 29.4831 4.62406C29.4216 4.62891 29.4581 4.68158 29.3541 4.69212C29.14 4.71379 28.1182 4.65328 27.852 4.63902C28.0155 4.6204 27.9677 4.56303 27.8415 4.56699C27.7153 4.57098 27.8213 4.64757 27.7967 4.6558C27.7703 4.66432 27.1782 4.62818 27.0797 4.6381C27.5254 4.61036 27.4249 4.55314 27.0466 4.54715C27.1013 4.53067 27.1559 4.51419 27.2106 4.49771C26.9889 4.52087 26.5227 4.43359 26.3945 4.45957C26.3744 4.46374 26.4466 4.51185 26.4353 4.51419C26.3229 4.53464 25.9404 4.48557 25.9226 4.50199C25.9075 4.51565 26.0706 4.55598 26.0101 4.57584C25.9974 4.58002 25.8401 4.51499 25.6852 4.53098C25.6277 4.53686 25.6623 4.58236 25.6479 4.585C25.5272 4.60688 25.5984 4.53026 25.3778 4.54258C25.2162 4.55169 25.0959 4.62659 24.8725 4.60178C25.6058 4.69727 24.9894 4.65739 24.6828 4.68632C24.6337 4.69094 24.6758 4.77353 24.3822 4.73332C25.007 4.58397 24.2041 4.65438 24.0398 4.65275C24.0308 4.65224 24.0277 4.59777 23.9472 4.5969C23.9403 4.59695 23.9501 4.63376 23.8753 4.63657C23.1652 4.66319 23.6192 4.6216 23.4844 4.5853C23.4269 4.56983 23.0816 4.62189 22.9886 4.62315C22.9672 4.62328 22.9771 4.58503 22.8943 4.58652C22.748 4.58927 22.6168 4.62999 22.5202 4.63322C22.5089 4.6334 22.5085 4.57305 22.3253 4.59263C22.2738 4.5981 22.216 4.61953 22.2892 4.63688C22.5317 4.69395 22.9918 4.59518 23.2659 4.65214C23.5159 4.70401 22.7276 4.70891 22.6866 4.70921C22.6716 4.7094 22.8255 4.67943 22.6691 4.6735C22.5356 4.66856 22.2915 4.7728 22.0924 4.7501C22.0773 4.74842 21.9182 4.66004 21.9256 4.65489C21.9322 4.65112 22.1764 4.63194 22.141 4.60636C22.1367 4.60345 21.9815 4.60404 21.9613 4.585C21.9364 4.56182 21.8695 4.33434 21.8364 4.32864C21.7513 4.31455 21.8067 4.36643 21.7517 4.36282C21.6337 4.35521 21.2245 4.28794 21.2111 4.36679C21.2788 4.37147 21.3464 4.37615 21.414 4.38083C21.0378 4.38894 21.1982 4.4225 21.1449 4.43729C21.0875 4.45328 21.1036 4.38398 20.9768 4.37747C20.9492 4.37604 20.4187 4.39051 20.4284 4.41959C20.7218 4.3733 20.613 4.45895 20.6265 4.46048C20.6779 4.46606 20.7436 4.41802 20.8125 4.41898C21.2976 4.42649 20.8084 4.50232 20.9229 4.52182C20.9623 4.52839 21.0409 4.48737 21.0576 4.48947C21.1119 4.49627 21.1128 4.54997 21.1491 4.54563C21.2337 4.53555 21.1349 4.45955 21.1416 4.4556C21.2172 4.40804 21.5134 4.46721 21.329 4.5499C21.4397 4.5797 21.4527 4.4792 21.5405 4.51938C21.715 4.59894 21.4535 4.5785 21.3827 4.59171C21.1286 4.63936 21.0532 4.60079 20.6935 4.61399C20.564 4.61865 20.4105 4.66746 20.3504 4.67014C20.3125 4.67183 19.9551 4.50198 19.9445 4.7678C19.8056 4.74208 19.5876 4.56691 19.4444 4.57493C19.3159 4.58223 19.3567 4.67627 19.3447 4.67991C19.3264 4.68563 19.1709 4.67822 19.1184 4.69151C19.0568 4.70721 19.0875 4.7431 18.9898 4.75773C18.7465 4.79404 18.7529 4.69805 18.7279 4.69181C18.4377 4.61971 18.5647 4.75624 18.5003 4.76719C18.4405 4.77726 17.6003 4.72471 17.4235 4.75926C17.4955 4.74003 17.5674 4.72081 17.6394 4.70158C17.5106 4.64171 17.3741 4.73936 17.3717 4.632C17.3455 4.80534 17.0797 4.68947 16.9999 4.69395C16.9684 4.69579 16.9709 4.72533 16.9315 4.7266C16.7777 4.73178 16.4308 4.70827 16.3473 4.72325C15.9864 4.78773 16.9093 4.895 16.9819 4.90148C16.8365 4.89956 16.0137 4.93839 16.3919 5.02172C16.4504 5.03458 16.554 4.95701 16.5868 4.95397C16.809 4.934 16.6342 5.00351 16.6517 5.01012C16.6813 5.0208 16.8276 4.95359 16.8662 4.9616C16.879 4.96416 16.7961 5.02711 17.0081 5.02843C16.9038 5.08946 16.3081 5.03974 16.2299 5.05407C16.2021 5.05919 16.3766 5.18958 15.8668 5.06292C15.8727 5.07503 15.8786 5.08713 15.8845 5.09924C15.6006 5.10422 15.3168 5.10921 15.0329 5.11419C15.0637 5.0863 15.2231 5.03028 15.0224 5.04217C14.9068 5.04905 14.9923 5.11117 14.9818 5.11297C14.8781 5.13007 13.0424 5.1094 12.6866 5.11633C12.5656 5.11858 12.2283 5.1685 12.2026 5.16943C12.0488 5.17443 11.5042 5.14193 11.3955 5.14898C11.3277 5.15351 11.3922 5.20544 11.3316 5.203C11.2752 5.20067 11.3336 5.15047 11.3169 5.14837C11.1783 5.13018 10.1255 5.19602 9.87547 5.14868C10.0283 5.16289 10.7907 5.06261 10.7754 5.02721C10.7721 5.02236 10.5868 4.98418 10.5486 5.0028C10.4854 4.95934 10.2686 5.09166 10.1506 5.06567C10.1373 5.06272 10.1898 4.9885 9.97933 4.97503C9.90682 4.97042 9.71695 5.02827 9.52586 4.96343C9.24921 4.99459 7.79472 4.89834 7.69492 4.97808C7.69197 4.98229 7.89679 5.00975 7.75841 5.04247C7.57444 5.08597 7.73965 4.93945 7.52525 4.92681C7.49294 4.92488 6.89643 4.93971 6.8769 4.94878C6.69623 5.03102 7.21748 5.06435 7.21018 5.07391C7.192 5.09798 6.7589 5.11254 6.7413 5.10687C6.72454 5.10096 7.07775 4.992 6.65331 5.03332C6.70193 5.04634 6.75056 5.05936 6.79918 5.07238C6.59956 5.09774 6.58054 5.02236 6.53218 5.01775C6.38185 5.00317 6.21922 5.11768 5.97835 4.97625C5.91466 4.93871 6.0204 4.89703 6.01243 4.89141C5.93591 4.84089 5.83831 4.97603 5.72326 4.87523C5.7146 4.86771 5.98234 4.80733 5.51438 4.80717C5.54658 4.81684 5.57879 4.8265 5.611 4.83617C5.54501 4.85774 5.0712 4.87056 5.00746 4.86546C4.82124 4.85056 4.98364 4.78118 4.79647 4.78947C4.91652 4.88455 4.34737 4.89696 4.38011 4.81511C4.30062 4.9179 3.81713 4.83861 3.58985 4.83617C3.44645 4.8347 3.15394 4.87956 3.10837 4.87431C3.05287 4.86789 3.06973 4.79776 2.96951 4.78215C2.94093 4.7777 2.64256 4.8291 2.38067 4.75651C2.32991 4.74253 2.22332 4.62358 2.31765 4.59385C2.47913 4.54297 2.78459 4.6388 2.7807 4.56852C2.77612 4.49333 2.36468 4.53804 2.25394 4.52823C1.74267 4.48285 2.0379 4.40292 2.02475 4.37869C1.99066 4.31989 1.7113 4.32172 1.69964 4.31643C1.65133 4.29295 1.84929 4.24642 1.85228 4.21053C1.85589 4.16381 1.58661 4.07949 1.64783 4.06374C1.73546 4.04137 1.98292 4.11165 1.99861 4.10829C2.20285 4.06296 1.9229 3.95502 1.84574 3.90199C1.82235 3.88567 1.91555 3.85886 1.89615 3.85407C1.60013 3.78146 1.83375 4.00578 1.63686 3.9908C1.46119 3.97744 1.68721 3.90651 1.6805 3.9026C1.67183 3.8983 1.46179 3.89443 1.42891 3.86933C1.41271 3.85676 1.95863 3.71879 1.93583 3.65692C1.76165 3.67055 1.58746 3.68419 1.41327 3.69782C1.39962 3.61715 1.65016 3.67653 1.67607 3.66821C1.72824 3.65153 1.58277 3.61071 1.58902 3.5852C1.59237 3.56898 1.76309 3.5111 1.60885 3.48724C1.55584 3.479 1.4446 3.53555 1.25154 3.47778C1.92343 3.40398 1.45782 3.35864 1.43801 3.33007C1.41861 3.3015 1.73938 3.23425 1.35003 3.24614C1.33315 3.08916 1.35842 3.19652 1.46905 3.16893C1.60459 3.13501 1.29135 3.08332 1.7867 3.12254C1.75852 3.04904 1.36037 3.05424 1.33929 3.04838C1.32109 3.04306 1.40959 3.00691 1.37803 2.99467C1.00478 2.85265 1.26115 2.9175 1.15305 2.82681C1.14343 2.81871 0.790652 2.78509 1.05922 2.77188C1.54852 2.74787 1.75302 2.85202 1.83524 2.62936C1.47332 2.53264 1.03481 2.67636 0.924792 2.6788C0.756396 2.6823 0.930839 2.6369 0.910089 2.62417C0.902881 2.62006 0.757768 2.62381 0.755819 2.6202C0.652345 2.45038 1.40183 2.61738 1.63779 2.58785C1.57455 2.56242 1.5113 2.53699 1.44805 2.51155C1.53386 2.51054 1.61967 2.50952 1.70548 2.5085C1.29668 2.45738 1.69106 2.48915 1.793 2.35164C1.81588 2.32074 1.54732 2.37373 1.85368 2.28785C1.62772 2.26803 1.69979 2.23993 1.49519 2.2787C1.50047 2.22358 1.96081 2.1614 2.14238 2.13312C1.50095 2.07118 1.86673 2.27335 1.31222 2.16639C1.20939 2.23464 1.47407 2.22135 1.45248 2.23261C1.37505 2.27312 1.19352 2.2088 0.974504 2.35072C0.938843 2.37402 1.08974 2.44574 0.866445 2.44228C0.841748 2.44179 0.699467 2.38049 0.701439 2.37605C0.720302 2.32805 0.861099 2.34604 0.866912 2.326C0.872367 2.30703 0.715285 2.31844 0.714743 2.31318C0.709916 2.25305 0.845806 2.2902 0.826069 2.27137C0.783446 2.23043 0.218423 2.10102 0.955833 2.13892C0.343335 2.20691 0.877415 2.20532 1.11594 2.17921C1.17676 2.17266 1.19217 2.13674 1.27884 2.12427C1.39033 2.10813 1.52082 2.12537 1.57851 2.11878C1.64056 2.11151 1.28802 2.0266 1.7979 2.05194C1.5384 1.96749 1.08004 2.05753 0.825135 1.99823C0.310858 1.8784 1.18371 1.85267 1.27464 1.84106C1.29887 1.83791 1.21765 1.7894 1.2338 1.78643C1.26021 1.78187 1.75559 1.80429 1.80443 1.76415C1.85315 1.72404 1.62299 1.766 1.60769 1.72417C1.59732 1.69601 2.19492 1.64606 1.87142 1.62682C1.64844 1.61362 1.23744 1.7268 1.16822 1.60515C1.49613 1.59508 1.82404 1.58501 2.15195 1.57493C1.97247 1.52865 1.793 1.48236 1.61352 1.43607C1.98157 1.42139 2.29974 1.47365 2.6493 1.40739C1.80933 1.25907 2.92203 1.28902 2.93427 1.27097C2.93836 1.26017 2.60774 1.13978 2.55454 1.11776C2.84751 1.07145 3.73773 1.04882 3.2169 0.900165C3.31143 0.93373 3.54036 0.850875 3.53734 0.844621C3.50827 0.778948 3.00897 0.821534 3.0904 0.76222C3.18477 0.693388 3.31701 0.786768 3.46219 0.779311C4.20718 0.740434 4.00279 0.397595 4.7498 0.451845C4.73494 0.439637 4.72008 0.42743 4.70522 0.415222C5.51718 0.434653 6.32913 0.454083 7.14109 0.473513C7.45877 0.368817 8.30424 0.305064 8.7195 0.316647C8.80312 0.318903 9.21365 0.37385 9.24462 0.383483C9.30199 0.401945 8.98655 0.408989 9.12909 0.443605C9.15919 0.45071 9.85422 0.473797 9.80452 0.415222C9.72664 0.408431 9.4829 0.437875 9.443 0.424073C9.16278 0.325559 11.3055 0.404261 11.4116 0.364561C11.3642 0.345538 11.3167 0.326515 11.2693 0.307491C11.4045 0.31685 11.5397 0.326209 11.6749 0.335568ZM5.46186 5.04003C5.38072 5.09881 5.17734 5.05466 5.05717 5.07116C4.89114 5.09426 4.60891 5.32059 4.73042 5.09374C4.97424 5.07584 5.21805 5.05794 5.46186 5.04003ZM9.02524 5.12762C8.86174 5.09605 8.98855 4.96936 9.12256 5.02203C9.13743 5.02801 9.24644 5.17011 9.02524 5.12762ZM7.31123 5.0675C7.31812 5.06582 7.4594 5.06917 7.46434 5.07116C7.59104 5.12203 7.16507 5.11163 7.31123 5.0675ZM15.5912 5.00249C15.411 5.00796 15.5415 5.12314 15.6535 5.07574C15.6605 5.07273 15.603 5.00222 15.5912 5.00249ZM15.463 4.99944C15.3231 4.89631 15.0413 5.10533 15.2653 5.08428C15.2871 5.08216 15.4695 5.00446 15.463 4.99944ZM8.44247 5.07726C8.46087 5.03774 8.62951 5.05682 8.70153 5.06628C8.69957 5.10237 8.51309 5.07285 8.44247 5.07726ZM12.7184 5.06628C12.7255 5.0352 12.1394 5.03692 12.0994 5.07787C12.1919 5.0605 12.7116 5.0942 12.7184 5.06628ZM14.2216 5.02264C14.2068 5.01726 14.0043 5.02543 14.0102 5.05285C14.109 5.08882 14.2885 5.04695 14.2216 5.02264ZM17.2095 5.02447C17.2205 5.01758 17.0688 4.84309 17.4282 4.95794C17.4809 4.97475 17.2925 5.02034 17.3112 5.0266C17.3505 5.03881 17.3815 5.04451 17.4065 5.04552C17.2391 5.05999 17.0652 5.06679 17.0484 5.05621C16.9695 5.00622 17.2046 5.02734 17.2095 5.02447ZM18.7781 4.89446C18.8126 4.866 19.0328 4.88121 19.0829 4.89293C19.0915 4.89514 19.054 4.96994 19.1531 4.96435C19.2327 4.95973 19.1138 4.88311 19.2689 4.89537C19.4256 4.90768 19.2162 4.96228 19.2299 4.96618C19.2483 4.97128 19.4907 4.93688 19.4831 4.98144C19.4775 5.01444 19.2178 4.99212 19.1536 4.99914C19.0714 5.00815 19.1711 5.06314 19.0336 5.05132C18.9473 5.04395 18.9951 4.94726 18.9769 4.94237C18.9616 4.93844 18.6598 4.99408 18.7785 4.89476C18.7784 4.89466 18.7782 4.89456 18.7781 4.89446ZM17.4517 5.04125C17.4391 5.04452 17.4243 5.04626 17.4065 5.04552C17.4216 5.04421 17.4368 5.04269 17.4517 5.04125ZM5.93424 4.99761C6.01923 5.02743 5.76697 5.06567 5.67145 5.0266C5.66979 4.9951 5.92071 4.99297 5.93424 4.99761ZM17.6069 4.96251C17.8555 4.98674 17.6727 5.02005 17.4517 5.04125C17.5219 5.02305 17.5235 4.95442 17.6069 4.96251ZM10.5486 5.0028C10.559 5.01001 10.5657 5.02125 10.5665 5.03973C10.539 5.01952 10.5365 5.00867 10.5486 5.0028ZM11.1285 5.03576C11.3274 4.97949 10.9234 4.98176 10.926 5.02203C10.9272 5.03723 11.1206 5.038 11.1285 5.03576ZM15.8222 5.00799C15.804 5.00248 16.0866 4.83257 15.6763 4.96007C15.8953 4.9801 15.6643 4.9986 15.6677 5.01348C15.6766 5.05625 16.0444 5.01514 16.1258 5.03362C16.1896 4.9571 15.8823 5.02613 15.8227 5.00799C15.8225 5.00799 15.8224 5.00799 15.8222 5.00799ZM21.6051 4.93566C21.5553 4.9805 21.3972 4.96607 21.2905 4.96343C21.3403 4.91859 21.4984 4.93302 21.6051 4.93566ZM49.5214 4.94207C48.7904 4.98352 48.6957 4.80093 49.3646 4.87309C49.3777 4.87461 49.5658 4.92356 49.5214 4.94207ZM43.2479 4.89476C43.179 4.81518 43.407 4.80238 43.5567 4.83525C43.5906 4.84264 43.7158 4.92325 43.5728 4.93901C43.5774 4.84255 43.3562 4.8057 43.2479 4.89476ZM17.7474 4.91155C17.8198 4.85847 18.0427 4.89625 18.1601 4.90422C18.0884 4.94792 17.8513 4.92816 17.7474 4.91155ZM47.1194 4.84685C47.0423 4.84082 46.9903 4.91006 47.0036 4.91582C47.0632 4.94224 47.2072 4.88626 47.1194 4.84685ZM17.0281 4.90331C17.0179 4.87159 17.3131 4.84106 17.3336 4.91948C17.2705 4.91381 17.0354 4.92321 17.0281 4.90331ZM21.4039 4.91185C21.3581 4.89573 21.5954 4.86686 21.6672 4.88286C21.6614 4.91662 21.434 4.92233 21.4039 4.91185ZM45.8789 4.87035C45.8099 4.86433 45.6375 4.8625 45.6184 4.89049C45.5947 4.92548 45.8475 4.91355 45.8789 4.87035ZM58.7167 4.80992C58.7254 4.82249 58.4584 4.91312 58.3397 4.89018C58.1144 4.84631 58.7072 4.80104 58.7167 4.80992ZM47.8487 4.81114C48.0663 4.87699 47.8247 4.81322 47.8342 4.88255C47.9807 4.88505 48.3449 4.88847 48.0945 4.8203C48.0457 4.80711 47.917 4.81563 47.8487 4.81114ZM47.648 4.78795C47.6247 4.81041 47.4678 4.88122 47.6034 4.87615C47.6661 4.87369 47.7671 4.79501 47.648 4.78795ZM57.0626 4.84074C56.8676 4.77936 57.7616 4.81229 57.7873 4.82304C57.8009 4.82872 57.8098 4.83407 57.8149 4.83861C57.8477 4.81915 58.0165 4.81565 58.0361 4.86485C57.9855 4.86079 57.8472 4.86512 57.8312 4.85967C57.8243 4.85734 57.8191 4.85517 57.8156 4.85295C57.756 4.89567 57.1 4.85238 57.0626 4.84074ZM55.5813 4.77757C55.8045 4.68702 55.844 4.84098 55.8248 4.84593C55.5818 4.90895 55.7402 4.7954 55.7328 4.79008C55.7158 4.78124 55.5433 4.83392 55.582 4.77757C55.5818 4.77757 55.5816 4.77757 55.5813 4.77757ZM56.759 4.81541C56.7682 4.81341 56.9555 4.81817 56.9632 4.8206C57.1168 4.87234 56.5866 4.85909 56.759 4.81541ZM19.9604 4.78673C20.0946 4.80203 19.963 4.85867 19.8738 4.8383C19.8665 4.83629 19.8421 4.77321 19.9604 4.78673ZM47.5409 4.80321C47.5098 4.7925 46.7142 4.75214 46.762 4.83769C46.8296 4.8276 47.7338 4.87163 47.5409 4.80321ZM41.5958 4.78245C41.736 4.78312 41.5831 4.8638 41.5082 4.83372C41.4805 4.82255 41.5604 4.78234 41.5958 4.78245ZM16.6302 4.83006C16.4845 4.87439 16.5147 4.72568 16.6409 4.77665C16.6459 4.77865 16.6359 4.82833 16.6302 4.83006ZM42.7165 4.82884C42.2327 4.87774 42.3473 4.62194 42.9762 4.70829C42.9566 4.71969 42.9369 4.73108 42.9172 4.74247C43.6432 4.78085 42.9669 4.7605 42.7891 4.77482C42.7215 4.78027 42.7782 4.82297 42.717 4.82915C42.7168 4.82905 42.7166 4.82894 42.7165 4.82884ZM40.858 4.77757C40.3921 4.59601 41.2816 4.71424 41.5367 4.69059C41.2894 4.76557 40.9674 4.75422 41.4053 4.83098C40.765 4.84582 41.0316 4.77351 41.006 4.7675C40.9757 4.76076 40.8779 4.78537 40.858 4.77757ZM42.087 4.77635C42.114 4.77105 42.3169 4.80801 42.39 4.80199C42.2878 4.86401 41.9082 4.81237 42.087 4.77635ZM54.0284 4.81969C54.0452 4.77109 54.0869 4.7353 54.247 4.75346C54.1976 4.77788 54.0953 4.79888 54.0284 4.81969ZM5.30783 4.78428C5.19753 4.7808 4.97792 4.76249 5.04527 4.81358C5.05264 4.81794 5.30749 4.81296 5.30783 4.78428ZM45.2303 4.76384C45.2069 4.75786 44.6002 4.75385 44.8097 4.80748C44.8729 4.82365 45.4249 4.81678 45.2303 4.76384ZM48.3717 4.76994C48.321 4.76943 48.1147 4.77859 48.1103 4.79008C48.0964 4.82982 48.3495 4.80797 48.3717 4.76994ZM4.75143 4.73454C4.73691 4.7295 4.40002 4.73843 4.43705 4.76201C4.50735 4.80659 4.80122 4.75191 4.75143 4.73454ZM20.4484 4.67289C20.4766 4.67109 20.5138 4.72388 20.5236 4.72447C20.5465 4.72522 21.062 4.70492 20.865 4.77269C20.8322 4.78405 20.0905 4.75802 19.994 4.75132C19.9567 4.67886 20.2735 4.74779 20.3506 4.74034C20.3642 4.73892 20.3729 4.6783 20.4482 4.6732C20.4483 4.67309 20.4484 4.67299 20.4484 4.67289ZM54.8627 4.76841C54.8855 4.72234 55.4915 4.69184 55.4845 4.74766C55.2772 4.75458 55.07 4.7615 54.8627 4.76841ZM54.5549 4.76079C54.4256 4.72819 54.7284 4.71741 54.8177 4.73179C54.8186 4.76279 54.5737 4.76555 54.5549 4.76079ZM47.2223 4.59782C47.1614 4.60908 47.3487 4.6763 47.3068 4.68937C47.2799 4.69751 47.1439 4.67231 47.1005 4.69334C47.0882 4.70002 47.227 4.76321 47.2671 4.76048C47.3241 4.75683 47.2688 4.70711 47.331 4.70677C47.5377 4.7057 47.7208 4.74116 47.9145 4.74034C47.932 4.74017 47.7964 4.70505 47.9456 4.70555C47.9686 4.70555 48.1071 4.75786 48.2856 4.7501C48.6798 4.58812 48.9692 4.74717 49.4694 4.68876C49.4505 4.67351 49.0764 4.63259 49.0544 4.63108C48.6363 4.60444 47.8873 4.60152 47.4494 4.60117C47.337 4.60103 47.3916 4.63532 47.3432 4.63657C47.3049 4.6375 47.3504 4.57402 47.2223 4.59782ZM5.36641 4.74919C5.31384 4.68578 5.12944 4.72591 5.01166 4.72264C5.05312 4.77983 5.25131 4.73514 5.36641 4.74919ZM51.834 4.71165C51.775 4.7141 51.592 4.695 51.5768 4.71409C51.5574 4.73902 51.8216 4.75475 51.834 4.71165ZM23.3551 4.6909C23.3608 4.68917 23.5028 4.69256 23.5082 4.69456C23.6351 4.74545 23.209 4.73502 23.3551 4.6909ZM26.7525 4.7031C26.8602 4.69528 26.9688 4.67546 27.005 4.72691C26.9364 4.71903 26.7399 4.73894 26.7525 4.7031ZM31.4396 4.70158C31.4174 4.63421 31.7416 4.67784 31.8028 4.68388C31.7801 4.71382 31.4559 4.75012 31.4396 4.70158ZM54.005 4.60819C54.2032 4.61218 54.1614 4.51012 54.2872 4.55631C54.3077 4.56412 54.3741 4.77662 54.1563 4.697C54.117 4.68269 54.2704 4.63219 54.005 4.60819ZM43.0787 4.71043C43.1291 4.66586 43.2866 4.67909 43.3931 4.68266C43.3692 4.71577 43.1544 4.70725 43.0787 4.71043ZM4.14299 4.68357C4.05004 4.62065 3.62059 4.66733 3.72685 4.7089C3.74197 4.71433 4.08274 4.6812 4.14299 4.68357ZM18.2513 4.70829C18.428 4.65874 18.062 4.6434 17.9465 4.69181C17.9988 4.68864 18.2394 4.71155 18.2513 4.70829ZM30.3138 4.66496C30.3222 4.66293 30.5096 4.66771 30.518 4.67014C30.6715 4.72189 30.1414 4.70864 30.3138 4.66496ZM25.6353 4.62131C25.7028 4.58054 26.1466 4.61344 26.246 4.65427C26.1503 4.7139 25.5515 4.67224 25.6353 4.62131ZM53.1896 4.63718C53.3309 4.63507 53.4651 4.64763 53.595 4.66526C53.5676 4.69959 53.2045 4.66283 53.1896 4.63718ZM31.0016 4.66068C31.0116 4.66096 31.0214 4.66484 31.031 4.66526C31.021 4.66381 31.0111 4.66214 31.0016 4.66068ZM50.025 4.61307C49.9066 4.59951 49.9312 4.66242 49.9385 4.66435C50.0276 4.68472 50.1592 4.62838 50.025 4.61307ZM5.23104 4.6558C5.18997 4.59903 4.99069 4.64306 4.87606 4.62955C4.90932 4.67439 5.1387 4.66176 5.23104 4.6558ZM40.359 4.66129C40.2102 4.59974 40.8158 4.52824 40.9434 4.56791C40.9529 4.60594 40.3808 4.66972 40.359 4.66129ZM17.7026 4.62315C17.6907 4.57866 17.4364 4.63234 17.4905 4.65336C17.5247 4.66673 17.7097 4.65078 17.7026 4.62315ZM41.248 4.59385C41.3049 4.58027 41.4375 4.62417 41.3908 4.65092C41.3309 4.68521 41.2333 4.59773 41.248 4.59385ZM46.3534 4.55814C46.3285 4.55134 45.9939 4.597 46.1321 4.64237C46.228 4.6739 46.2433 4.6096 46.2659 4.60941C46.2911 4.60962 46.8282 4.68831 46.3534 4.55814ZM36.967 4.62254C37.0932 4.60543 37.2458 4.62529 37.378 4.62406C37.3241 4.65157 37.0207 4.65907 36.967 4.62254ZM18.6833 4.61124C18.6527 4.59325 17.8175 4.58242 18.2919 4.63779C18.3196 4.64092 18.7764 4.66572 18.6833 4.61124ZM54.005 4.60819C53.98 4.60769 53.9512 4.60557 53.9177 4.60117C53.951 4.6029 53.9798 4.60592 54.005 4.60819ZM51.7542 4.60148C51.7999 4.5691 51.57 4.56044 51.5022 4.57767C51.4813 4.61723 51.7479 4.606 51.7542 4.60148ZM37.388 4.57889C37.4641 4.56036 37.6023 4.58014 37.6965 4.57798C37.6806 4.60808 37.4209 4.60947 37.388 4.57889ZM32.0422 4.54502C32.1934 4.56291 32.3794 4.55468 32.3823 4.51786C32.3854 4.52361 32.3928 4.52972 32.4049 4.53586C32.4172 4.54194 32.5792 4.52482 32.6495 4.53739C33.0707 4.61205 31.0229 4.58124 32.2098 4.47727C32.154 4.49985 32.0981 4.52243 32.0422 4.54502ZM25.0348 4.53464C24.949 4.48982 24.7087 4.54599 24.771 4.56363C24.8145 4.57573 25.1206 4.57977 25.0348 4.53464ZM28.3363 4.50809C28.3106 4.50009 28.076 4.53148 28.07 4.55509C28.2048 4.57996 28.4531 4.54525 28.3363 4.50809ZM24.3752 4.48215C24.3214 4.47539 24.2526 4.54766 24.259 4.55082C24.3137 4.5772 24.4656 4.52239 24.3752 4.48215ZM53.5945 4.41348C53.5144 4.39278 53.259 4.4451 53.2033 4.49283C53.193 4.4836 53.1651 4.47157 53.1139 4.45712C53.1141 4.45712 53.1143 4.45712 53.1144 4.45712C53.0454 4.43784 50.981 4.41678 52.3657 4.5087C52.4091 4.51165 52.3498 4.4688 52.5263 4.47635C52.5379 4.4769 52.5437 4.51188 52.5797 4.51358C52.6626 4.51728 53.1039 4.53929 53.1926 4.51114C53.1933 4.51763 53.1991 4.52379 53.2113 4.52945C53.32 4.5799 53.6567 4.42944 53.5945 4.41348ZM28.8014 4.50168C28.7542 4.48872 28.6047 4.50103 28.5893 4.53189C28.6634 4.54702 28.911 4.53192 28.8014 4.50168ZM18.6574 4.48459C18.5612 4.4592 18.3174 4.50667 18.3911 4.53189C18.4363 4.54741 18.7683 4.51374 18.6574 4.48459ZM27.3045 4.51816C27.856 4.55465 27.4361 4.51521 27.5206 4.46994C27.4485 4.48601 27.3765 4.50209 27.3045 4.51816ZM56.1473 4.53037C56.0593 4.51995 56.1627 4.43063 56.2596 4.4791C56.2899 4.49449 56.1965 4.53603 56.1473 4.53037ZM60.1189 4.5026C60.0438 4.42339 60.4104 4.46993 60.2675 4.52426C60.2609 4.5261 60.1242 4.50561 60.1189 4.5026ZM57.3436 4.47025C57.2839 4.52418 57.2451 4.53057 57.0769 4.51725C57.3259 4.50205 57.0949 4.45436 57.3436 4.47025ZM32.3807 4.51206C32.3816 4.51424 32.3824 4.51585 32.3823 4.51786C32.3812 4.51587 32.3807 4.51399 32.3807 4.51206ZM23.8566 4.49619C23.7876 4.4505 23.594 4.45387 23.6517 4.49985C23.6573 4.50411 23.8283 4.52994 23.8566 4.49619ZM53.2033 4.49283C53.2125 4.50101 53.2078 4.50631 53.1926 4.51114C53.1919 4.50504 53.1958 4.49928 53.2033 4.49283ZM24.8957 4.45895C24.8887 4.49304 25.1833 4.50629 25.1951 4.50229C25.3641 4.44318 25.0173 4.4569 24.8957 4.45895ZM16.71 4.43668C16.6948 4.44023 16.7928 4.52822 16.8529 4.49375C16.8993 4.467 16.7669 4.42314 16.71 4.43668ZM57.9147 4.44827C58.008 4.44833 58.1393 4.44829 58.1635 4.49008C58.101 4.48367 57.9128 4.47894 57.9147 4.44827ZM59.9753 4.44522C59.8651 4.49435 59.6133 4.49421 59.4525 4.48612C59.4496 4.42145 59.8719 4.46043 59.9753 4.44522ZM53.8475 4.43759C53.8398 4.43496 53.606 4.41567 53.6379 4.45895C53.6846 4.52244 53.9135 4.46113 53.8475 4.43759ZM17.1642 4.48337C17.2688 4.45356 17.0281 4.36193 16.9177 4.43271C16.8611 4.46895 17.1466 4.48836 17.1642 4.48337ZM23.2524 4.43637C23.1143 4.46142 23.4564 4.50605 23.5042 4.46079C23.4406 4.45715 23.3014 4.4275 23.2524 4.43637ZM27.9484 4.39059C27.5135 4.26004 27.7503 4.4982 27.8275 4.47727C27.8383 4.47428 27.959 4.39366 27.9484 4.39059ZM3.0638 4.42264C3.00223 4.44078 3.23177 4.50649 3.26148 4.46323C3.27983 4.43616 3.10317 4.41108 3.0638 4.42264ZM34.4975 4.47543C34.4791 4.47585 34.4609 4.47628 34.4429 4.47666C34.4564 4.47452 34.4742 4.47383 34.4975 4.47543ZM21.9995 4.2615C22.3057 4.44582 22.2735 4.30376 22.3001 4.30453C22.3576 4.30651 22.4912 4.35635 22.5996 4.34817C22.4755 4.36892 22.3514 4.38968 22.2273 4.41043C22.3253 4.42374 23.1769 4.49159 23.1947 4.4617C23.2203 4.41914 22.9523 4.43249 22.9445 4.42874C22.9333 4.4234 22.8914 4.30506 22.8666 4.30056C22.8257 4.29337 22.1137 4.29092 21.9995 4.2615ZM27.0389 4.41104C27.1088 4.42511 27.1287 4.47199 27.1612 4.46079C27.1722 4.45695 27.174 4.41223 27.2118 4.40066C27.1542 4.40412 27.0965 4.40758 27.0389 4.41104ZM21.4513 4.42722C21.3646 4.37257 21.7532 4.39332 21.7657 4.39944C21.8321 4.43648 21.5221 4.47186 21.4513 4.42722ZM24.7486 4.41928C24.7344 4.41609 24.436 4.39903 24.4384 4.42935C24.5174 4.45247 24.9164 4.4592 24.7486 4.41928ZM27.2585 4.39761C27.3633 4.40283 27.5615 4.44786 27.5388 4.38052C27.5386 4.38052 27.5385 4.38052 27.5383 4.38052C27.445 4.38622 27.3518 4.39192 27.2585 4.39761ZM17.5222 4.34115C17.3279 4.2339 17.42 4.36942 17.592 4.40402C17.6441 4.35587 17.5541 4.3586 17.5222 4.34115ZM16.9005 4.26119C16.8464 4.2419 16.2894 4.26304 16.3744 4.31979C16.4046 4.34001 16.7249 4.28901 16.7397 4.29293C16.762 4.29875 16.6599 4.36153 16.8307 4.34909C16.8207 4.32782 16.919 4.26764 16.9005 4.26119ZM17.3614 4.27249C17.1683 4.19092 17.125 4.34135 17.2702 4.34176C17.3269 4.34203 17.389 4.28425 17.3614 4.27249ZM18.15 4.2853C18.0805 4.27104 17.8955 4.25023 17.768 4.30026C17.9387 4.30453 18.1093 4.3088 18.28 4.31308C18.2997 4.28473 18.2108 4.29784 18.1496 4.2853C18.1497 4.2853 18.1499 4.2853 18.15 4.2853ZM61.1355 4.05977C60.9821 4.01711 61.3355 4.00076 61.3505 4.01124C61.3948 4.04604 61.2041 4.07882 61.1355 4.05977ZM1.86558 3.05601C1.82296 3.039 1.79509 2.98305 1.70128 3.01237C1.79564 3.05367 1.89001 3.09497 1.98438 3.13627C2.05771 3.04164 1.91217 3.07477 1.86558 3.05601ZM1.50523 2.71023C1.51856 2.70794 1.44574 2.56242 1.61796 2.65957C1.73431 2.72517 1.10156 2.7891 0.98734 2.72458C1.11355 2.69459 1.39048 2.72891 1.50523 2.71023ZM0.396868 2.08032C0.389572 2.06872 0.62997 2.0517 0.657796 2.05988C0.803903 2.103 0.43634 2.1425 0.396868 2.08032ZM1.16378 2.1081C1.05104 2.07984 1.3008 2.06162 1.37523 2.07788C1.38245 2.10497 1.1812 2.11221 1.16378 2.1081ZM59.5821 1.95215C59.4601 1.85324 59.3509 2.06615 59.5387 2.02325C59.5476 2.02124 59.5873 1.95699 59.5821 1.95215ZM0.63189 1.93353C0.744632 1.96179 0.494873 1.98001 0.42044 1.96374C0.413518 1.93669 0.614723 1.9294 0.63189 1.93353ZM59.4962 1.71654C59.3342 1.64537 59.3912 1.88423 59.4115 1.89386C59.4949 1.93187 59.7808 1.83812 59.8393 1.81481C59.4112 1.85066 59.5725 1.75008 59.4962 1.71654ZM58.7489 1.85998C58.5986 1.88546 58.9827 1.9342 59.056 1.86761C58.9813 1.8708 58.7916 1.85261 58.7489 1.85998ZM57.8366 1.78338C57.7557 1.77482 57.5154 1.75434 57.475 1.79192C57.5633 1.78512 57.8025 1.82205 57.8366 1.78338ZM57.6536 1.67076C57.5272 1.6197 57.497 1.76849 57.6426 1.72417C57.6483 1.72246 57.6582 1.6736 57.6536 1.67076ZM56.9434 1.61705C56.8605 1.55788 56.7659 1.70198 56.9002 1.70586C56.9401 1.70675 56.9522 1.62383 56.9434 1.61705ZM59.2934 1.45957C59.1747 1.43416 59.0218 1.53736 59.2752 1.54869C59.1862 1.56446 59.0972 1.58022 59.0082 1.59599C59.3401 1.65383 59.3157 1.51073 59.411 1.51664C59.5442 1.52505 59.5337 1.64314 59.5069 1.68022C59.6161 1.60787 60.08 1.60672 60.3481 1.59294C60.1124 1.56258 59.7301 1.50994 59.4976 1.4907C59.4312 1.48513 59.3668 1.51752 59.3102 1.5139C59.2194 1.50792 59.3 1.46128 59.2938 1.45957C59.2937 1.45957 59.2935 1.45957 59.2934 1.45957ZM56.0098 1.61491C55.7662 1.54788 55.9203 1.6926 56.0579 1.6668C56.0638 1.66481 56.0159 1.61655 56.0098 1.61491ZM0.30888 1.49375C0.634329 1.55424 0.397768 1.63442 1.0786 1.51268C0.792564 1.59886 1.06278 1.57466 1.00694 1.60942C0.962156 1.63692 0.794332 1.61415 0.891885 1.66954C0.763659 1.60925 0.206969 1.62593 0.18215 1.61613C0.182384 1.61613 0.182617 1.61613 0.18285 1.61613C0.167944 1.61033 0.20503 1.47452 0.30888 1.49375ZM57.8354 1.40494C57.7541 1.22935 57.7223 1.50806 57.5626 1.36252C57.3499 1.57386 58.15 1.36255 58.2469 1.54106C57.3779 1.52032 58.8209 1.71793 58.2144 1.45072C58.7141 1.54771 58.3781 1.41763 58.4553 1.38358C58.5378 1.34731 58.8204 1.38673 58.8061 1.32132C58.8059 1.32132 58.8057 1.32132 58.8056 1.32132C58.6327 1.3259 58.4599 1.33048 58.287 1.33506C58.4562 1.47615 58.1029 1.43384 57.9831 1.31888C57.9339 1.34757 57.8846 1.37626 57.8354 1.40494ZM58.8138 1.5374C58.7967 1.53417 58.4207 1.55394 58.445 1.58226C58.4952 1.60032 59.0288 1.57866 58.8138 1.5374ZM60.4685 1.50657C60.3335 1.50623 60.1247 1.4787 60.0512 1.5319C60.1862 1.53226 60.395 1.5598 60.4685 1.50657ZM53.517 1.4965C53.3449 1.54016 53.8747 1.55309 53.7215 1.50138C53.7139 1.49895 53.5255 1.49446 53.517 1.4965ZM57.444 1.4315C57.269 1.37783 57.3517 1.54864 57.4813 1.50413C57.4888 1.50151 57.4521 1.43394 57.444 1.4315ZM0.572609 1.473C0.584312 1.43115 1.05651 1.46055 1.14021 1.46018C1.09265 1.49908 0.559183 1.52098 0.572609 1.473ZM60.7061 1.35001C60.4375 1.19953 60.0729 1.37334 60.033 1.36954C59.9932 1.36567 60.0556 1.29989 60.0465 1.29813C60.0259 1.29444 59.6026 1.29996 59.5821 1.30454C59.5674 1.30811 59.644 1.40055 59.5566 1.42967C59.7271 1.37714 60.5009 1.41 60.5411 1.39976C60.5722 1.39158 60.3377 1.29451 60.7056 1.35001C60.7058 1.35001 60.7059 1.35001 60.7061 1.35001ZM59.9331 1.3494C60.0388 1.38815 59.7423 1.393 59.6705 1.3787C59.5111 1.3467 59.9195 1.34481 59.9331 1.3494ZM59.2199 1.31369C59.186 1.305 58.8804 1.29711 58.8544 1.34025C58.999 1.3962 59.2967 1.33394 59.2199 1.31369ZM55.8189 1.31949C55.7395 1.32502 55.5213 1.29187 55.5087 1.32956C55.5882 1.32407 55.8065 1.35719 55.8189 1.31949ZM2.18369 1.14401C2.05182 1.11247 2.35735 1.09958 2.44648 1.11471C2.45132 1.13986 2.19492 1.14672 2.18369 1.14401ZM57.4144 1.07107C57.3674 1.05961 56.4085 1.08821 56.274 1.10586C56.4056 1.13437 57.3558 1.13656 57.399 1.12265C57.4115 1.11848 57.4204 1.07287 57.4144 1.07107ZM59.488 1.05367C59.5759 0.998166 59.6333 1.06474 59.6444 1.06558C59.7531 1.07407 59.9786 1.06156 59.9291 1.11502C59.7373 1.09345 59.313 1.1639 59.488 1.05367ZM55.7508 1.06832C55.4252 1.08892 56.0506 1.1474 55.9685 1.08938C55.9632 1.08587 55.7844 1.06616 55.7508 1.06832ZM57.5215 1.0549C57.5933 1.01004 58.5524 1.04872 58.7064 1.04879C58.5685 1.13152 58.4573 1.06868 58.2721 1.0729C58.2221 1.07414 58.2354 1.10855 58.2301 1.10861C58.1435 1.1102 58.2083 1.07045 58.1549 1.06985C58.1212 1.06958 57.4204 1.11809 57.5215 1.0549ZM59.5382 1.01522C59.5918 0.983401 60.1907 0.969837 60.2148 0.978293C60.395 1.04118 59.5847 1.0263 59.5382 1.01522ZM57.4335 0.981345C57.5366 0.885198 58.013 0.949588 57.687 0.99752C57.6558 1.00188 57.524 0.960202 57.4335 0.981345ZM55.7855 0.976767C55.7695 0.973939 55.4301 0.954721 55.424 0.985312C55.4731 0.9972 55.9678 1.00787 55.7855 0.976767ZM55.9615 0.873309C55.9533 0.874042 56.0329 0.932962 55.8738 0.925496C55.8605 0.924793 55.8358 0.858503 55.6357 0.882769C55.5951 0.887767 55.5322 0.93162 55.5368 0.934346C55.7451 1.03838 56.3725 0.83913 55.9615 0.873309ZM59.5492 0.961508C59.5169 0.933527 59.5947 0.850477 59.6649 0.892535C59.695 0.910696 59.6389 0.960537 59.5492 0.961508ZM54.7092 0.949911C54.9065 0.899544 54.287 0.890021 54.2554 0.902912C54.2753 0.934285 54.6894 0.95483 54.7092 0.949911ZM2.49246 0.755201C2.49231 0.755201 2.49215 0.755201 2.492 0.755201C2.65799 0.766614 2.55517 0.808514 2.56295 0.80983C2.91651 0.871372 2.82273 0.776472 2.87802 0.765272C2.99658 0.741051 2.97747 0.856457 3.17746 0.808609C2.84689 0.879267 3.14779 0.849646 3.15715 0.890704C3.1942 1.05826 2.71703 0.812248 2.55221 0.847368C2.52924 0.852231 2.6988 0.905705 2.63996 0.920918C2.44867 0.97021 1.85553 0.711558 2.49246 0.755201ZM59.7191 0.885211C59.7961 0.835995 60.3802 0.88373 60.2253 0.924275C60.2004 0.930775 59.6059 0.956946 59.7191 0.885211ZM32.4336 0.812576C32.574 0.769984 32.2487 0.719914 32.1883 0.753065C32.1584 0.76958 32.372 0.831269 32.4336 0.812576ZM30.1525 0.630379C29.9857 0.639025 29.8098 0.81664 30.0174 0.789077C30.0394 0.786064 30.1716 0.655017 30.1525 0.630379ZM41.1059 0.72163C40.9317 0.658157 40.9421 0.776092 41.0699 0.774428C41.1151 0.773859 41.1114 0.723639 41.1059 0.72163ZM34.458 0.73689C34.4406 0.732773 34.2392 0.740303 34.2466 0.767409C34.321 0.783671 34.5708 0.765149 34.458 0.73689ZM41.1612 0.704845C41.0579 0.7261 41.2357 0.8114 41.3619 0.728039C41.2978 0.734877 41.1718 0.702673 41.1612 0.704845ZM57.0736 0.720715C56.9871 0.769142 56.7425 0.754509 56.6019 0.762831C56.5868 0.700091 56.9732 0.73209 57.0736 0.720715ZM30.8606 0.701793C30.7027 0.746012 31.041 0.782213 31.01 0.723767C31.0056 0.720592 30.8668 0.699908 30.8606 0.701793ZM46.7254 0.698436C46.6106 0.735861 46.9751 0.786191 46.8748 0.72041C46.8698 0.717728 46.7317 0.696354 46.7254 0.698436ZM48.3169 0.720104C48.2298 0.70748 47.8584 0.711364 48.003 0.747877C48.0254 0.753487 48.3103 0.754384 48.3169 0.720104ZM2.88782 0.720104C2.8409 0.655655 3.11326 0.670997 3.15225 0.682261C3.16757 0.686946 2.94902 0.803957 2.88782 0.720104ZM39.9746 0.711559C39.8845 0.719623 39.6508 0.7043 39.6096 0.738111C39.7199 0.731112 40.0043 0.778912 39.9746 0.711559ZM31.5806 0.701488C31.4431 0.631455 31.2081 0.638367 31.2662 0.72987C31.5257 0.723739 31.2341 0.647624 31.5806 0.701488ZM41.7416 0.629464C41.6694 0.624121 41.614 0.711997 41.6221 0.716137C41.7004 0.755525 41.8134 0.663654 41.7416 0.629464ZM36.3184 0.701793C36.3142 0.66424 36.0825 0.681284 36.1135 0.705455C36.1236 0.71357 36.3218 0.732184 36.3184 0.701793ZM54.0396 0.699352C53.9334 0.665075 54.2576 0.631564 54.3535 0.67158C54.4001 0.72924 54.053 0.703289 54.0396 0.699352ZM43.7457 0.651437C43.7565 0.595706 43.3944 0.627216 43.5371 0.673411C43.5728 0.68497 43.742 0.670072 43.7457 0.651437ZM47.2122 0.584601C46.9694 0.651061 47.9893 0.698244 47.7213 0.615425C47.7021 0.609524 47.2334 0.578989 47.2122 0.584601ZM48.8779 0.626107C48.836 0.618784 48.8569 0.431512 49.0303 0.503727C49.0531 0.513092 48.9466 0.562597 48.9652 0.57392C48.9762 0.580373 49.3533 0.606674 49.3706 0.602302C49.3893 0.597338 49.3673 0.537316 49.3863 0.530583C49.4076 0.523059 49.6397 0.575785 49.7613 0.576361C49.9904 0.57735 50.0151 0.527392 50.0339 0.527226C50.0886 0.526895 50.1806 0.562367 50.2916 0.562323C50.8508 0.561924 51.706 0.519577 52.1493 0.625496C51.7549 0.582962 51.3789 0.62809 50.9864 0.641977C51.1013 0.537695 50.4089 0.722325 50.8139 0.601997C50.6274 0.628098 49.0153 0.648971 48.8784 0.626107C48.8783 0.626107 48.8781 0.626107 48.8779 0.626107ZM29.4941 0.577887C29.5966 0.513946 29.0708 0.528329 29.0262 0.602302C29.0956 0.612568 29.4814 0.585134 29.4941 0.577887ZM31.9199 0.421936C31.9688 0.4109 32.0151 0.285916 32.2712 0.349302C32.2714 0.349302 32.2717 0.349302 32.2719 0.349302C32.3468 0.367813 32.2614 0.398267 32.2752 0.409119C32.2802 0.41355 32.5137 0.475722 32.3197 0.485721C32.024 0.501061 32.2919 0.392741 32.1342 0.391418C32.1149 0.391315 31.8165 0.458968 31.8338 0.473818C31.8356 0.475548 31.9254 0.461237 31.9402 0.467409C31.9963 0.490612 31.969 0.529641 31.9769 0.531499C32.0027 0.536258 32.4747 0.469766 32.5433 0.527836C32.5656 0.546562 31.791 0.589759 31.7608 0.580023C31.7417 0.573889 31.7497 0.465552 31.73 0.454897C31.7198 0.449589 31.4082 0.490187 31.3677 0.480227C31.356 0.477347 31.347 0.474241 31.3404 0.471682C31.3876 0.5052 31.1054 0.502786 31.1141 0.464968C31.119 0.450104 31.3132 0.458707 31.3201 0.461306C31.3232 0.462406 31.3258 0.463922 31.3283 0.464968C31.2881 0.42412 31.9457 0.425963 31.8037 0.365172C31.9943 0.331869 31.7767 0.45435 31.9199 0.421936ZM32.8362 0.3551C32.8165 0.366494 32.7969 0.377888 32.7772 0.389281C33.1109 0.361394 33.496 0.416241 33.8804 0.415833C33.978 0.415812 33.8657 0.34613 33.9936 0.365172C34.096 0.380432 34.2094 0.445064 34.1537 0.459474C34.1401 0.46307 33.9316 0.420973 33.8272 0.425293C33.519 0.438083 33.5969 0.49784 33.5789 0.499454C33.559 0.501153 33.365 0.459129 33.2591 0.461C32.9928 0.465837 32.8712 0.502525 32.5074 0.454591C32.7173 0.415208 32.6023 0.329652 32.8362 0.3551ZM45.2751 0.482364C45.2878 0.444751 45.5062 0.478122 45.5855 0.472598C45.5731 0.510303 45.3545 0.476836 45.2751 0.482364ZM12.7324 0.433534C12.6653 0.495255 13.168 0.510538 13.0356 0.459169C13.0062 0.447769 12.7955 0.433973 12.7324 0.433534ZM14.9909 0.471072C15.0581 0.454007 14.7873 0.409569 14.7878 0.457338C14.7882 0.472656 14.9822 0.473291 14.9909 0.471072ZM37.1499 0.415833C37.1627 0.4139 37.3477 0.427647 37.3535 0.430787C37.476 0.496323 36.8671 0.458445 37.1499 0.415833ZM17.7365 0.39508C17.5021 0.435536 18.2076 0.45307 17.992 0.401489C17.9813 0.398976 17.7477 0.393114 17.7365 0.39508ZM18.7172 0.383788C18.661 0.385956 18.4114 0.365869 18.4082 0.384704C18.4032 0.415089 18.6888 0.43585 18.7172 0.383788ZM41.7904 0.396301C41.7633 0.326757 42.0924 0.379422 42.2068 0.370665C42.2339 0.440257 41.9048 0.387518 41.7904 0.396301ZM39.7135 0.345029C41.1007 0.290207 40.7948 0.438791 39.6309 0.378905C39.6292 0.33429 39.6259 0.348482 39.7135 0.345029ZM41.4898 0.353269C41.4394 0.397821 41.2819 0.38461 41.1754 0.381041C41.1946 0.350066 41.413 0.361276 41.4898 0.353269ZM12.1337 0.33801C12.2207 0.28173 12.606 0.351113 12.5375 0.374327C12.5216 0.37934 12.1018 0.36896 12.1337 0.33801ZM37.2662 0.356321C37.2339 0.288688 37.6504 0.316276 37.6823 0.331296C37.8109 0.391711 37.2999 0.341394 37.2662 0.356321ZM43.7593 0.336789C43.8328 0.283813 44.0417 0.311061 44.1761 0.311764C44.1149 0.357062 43.8733 0.337742 43.7593 0.336789ZM42.7893 0.295284C42.7977 0.29325 42.9851 0.298033 42.9935 0.300472C43.1471 0.352215 42.617 0.338964 42.7893 0.295284ZM2.26234 0.246454C2.26858 0.244747 2.4105 0.248124 2.41544 0.250116C2.54211 0.300978 2.11618 0.290585 2.26234 0.246454Z" fill="#252422"/>
</svg>
